<?xml version="1.0" standalone="no"?>
<!DOCTYPE svg PUBLIC "-//W3C//DTD SVG 20010904//EN"
 "http://www.w3.org/TR/2001/REC-SVG-20010904/DTD/svg10.dtd">
<svg version="1.0" xmlns="http://www.w3.org/2000/svg"
 width="624.000000pt" height="624.000000pt" viewBox="0 0 624.000000 624.000000"
 preserveAspectRatio="xMidYMid meet">
<metadata>
Created by potrace 1.11, written by Peter Selinger 2001-2013
</metadata>
<g transform="translate(0.000000,624.000000) scale(0.100000,-0.100000)"
fill="#000000" stroke="none">
<path d="M2919 6236 c-2 -2 -40 -6 -84 -10 -115 -8 -275 -34 -445 -71 -28 -6
-265 -75 -280 -82 -8 -3 -17 -7 -20 -8 -3 -1 -14 -5 -25 -9 -11 -4 -33 -13
-50 -18 -38 -14 -77 -30 -137 -57 -27 -12 -51 -22 -55 -23 -5 0 -37 -17 -73
-36 -36 -19 -67 -35 -70 -35 -3 0 -14 -5 -25 -12 -11 -6 -69 -40 -130 -75 -60
-35 -112 -66 -115 -70 -3 -4 -16 -13 -29 -20 -14 -7 -30 -17 -35 -21 -6 -5
-47 -36 -91 -69 -44 -33 -89 -68 -101 -77 -106 -89 -153 -132 -244 -223 -58
-58 -125 -130 -150 -159 -25 -30 -53 -63 -62 -73 -10 -10 -18 -22 -18 -27 0
-5 -4 -11 -9 -13 -4 -1 -36 -41 -69 -88 -34 -47 -66 -90 -72 -97 -5 -7 -15
-24 -22 -38 -6 -14 -14 -25 -18 -25 -4 0 -10 -8 -14 -17 -3 -10 -15 -34 -27
-53 -46 -74 -81 -138 -125 -230 -25 -52 -50 -103 -55 -113 -32 -59 -127 -323
-155 -432 -9 -33 -18 -67 -20 -75 -14 -49 -54 -254 -60 -300 -3 -30 -8 -63 -9
-72 -20 -104 -27 -532 -12 -678 10 -92 26 -210 32 -230 2 -8 7 -35 10 -60 4
-24 8 -47 10 -50 2 -3 6 -23 9 -45 17 -104 100 -366 171 -534 68 -161 197
-411 217 -419 4 -2 8 -8 8 -14 0 -5 25 -46 55 -90 30 -44 55 -83 55 -88 0 -4
7 -10 15 -14 8 -3 15 -12 15 -20 0 -8 4 -16 8 -18 5 -2 28 -28 51 -58 138
-177 329 -368 523 -524 32 -25 62 -46 67 -46 5 0 11 -7 15 -15 3 -8 12 -15 20
-15 8 0 16 -4 18 -8 4 -11 155 -112 167 -112 5 0 11 -4 13 -8 2 -7 100 -62
258 -147 14 -7 84 -38 156 -68 181 -76 370 -137 534 -172 48 -10 70 -15 89
-19 11 -3 41 -8 68 -12 26 -3 57 -8 68 -10 20 -4 54 -8 185 -23 80 -9 517 -7
585 3 22 3 60 8 85 11 38 5 104 15 185 30 11 2 40 8 65 14 25 5 56 12 70 15
47 9 265 74 335 101 39 14 75 27 80 29 16 5 47 17 103 42 28 13 54 24 57 24 3
0 34 16 70 35 36 20 67 35 70 36 10 0 267 149 275 159 3 4 16 13 29 20 14 7
30 17 35 22 6 4 43 32 81 60 39 29 72 55 73 60 2 4 8 8 13 8 5 0 17 8 27 18
10 9 45 40 77 67 108 91 296 284 372 382 15 20 40 51 56 69 15 17 27 37 27 43
0 6 4 11 8 11 10 0 153 216 205 310 98 174 179 355 243 545 29 85 43 131 70
235 2 8 13 58 24 110 50 230 64 374 65 635 0 235 -5 308 -30 475 -14 90 -17
111 -30 170 -3 14 -7 34 -9 45 -25 122 -109 399 -128 423 -6 6 -8 12 -5 12 6
0 -44 121 -92 221 -17 36 -31 71 -31 77 0 7 -3 12 -7 12 -5 0 -13 10 -19 23
-80 168 -254 426 -412 607 -95 109 -308 315 -387 372 -5 5 -28 24 -50 43 -22
19 -45 35 -51 35 -7 0 -14 7 -18 15 -3 8 -12 15 -20 15 -8 0 -16 4 -18 8 -4
12 -155 112 -168 112 -5 0 -10 5 -10 10 0 6 -6 10 -14 10 -8 0 -16 3 -18 8 -1
4 -21 16 -43 27 -22 11 -42 22 -45 25 -10 11 -256 129 -335 160 -84 34 -209
79 -235 85 -8 2 -35 10 -60 18 -43 14 -188 51 -240 61 -14 3 -35 7 -47 10 -11
2 -43 8 -70 12 -26 3 -57 8 -68 10 -11 2 -40 7 -65 9 -25 3 -61 8 -80 11 -40
6 -506 15 -511 10z"/>
</g>
</svg>
